<svg xmlns="http://www.w3.org/2000/svg" viewBox="0 0 55.96389 94.71127"><title>Asset 6</title><g id="Layer_2" data-name="Layer 2"><g id="Layer_1-2" data-name="Layer 1"><g id="Pieter_Levels_Icon" data-name="Pieter Levels Icon"><g id="Head"><path id="Face" d="M49.44475,35.275a1.12874,1.12874,0,0,0-.56268.07845,20.79129,20.79129,0,0,0-41.58248.0697c0,.07371.01026.14484.01106.21838a1.09363,1.09363,0,0,0-.15876-.00964,1.1597,1.1597,0,0,0-.98892,1.3085l.93412,6.71574a1.15974,1.15974,0,0,0,1.3085.98892,1.1409,1.1409,0,0,0,.81034-.54127,20.782,20.782,0,0,0,38.04287-.60588,1.15267,1.15267,0,0,0,2.24075-.19866l.93412-6.71573A1.15975,1.15975,0,0,0,49.44475,35.275Z" style="fill:#fdf6cb"/><g id="Eyebrows"><path id="Right_eyebrow" data-name="Right eyebrow" d="M31.92817,34.24394a.7343.7343,0,0,1,.47092-.81474c3.86992-1.4151,6.15572-2.06749,9.77733-1.58937,3.42993.45281.86016,1.21419.33039,1.35739a.81692.81692,0,0,1-.18442.02681,42.90778,42.90778,0,0,0-9.4917,1.60732A.73641.73641,0,0,1,31.92817,34.24394Z" style="fill:#cbb676"/><path id="Left_eyebrow" data-name="Left eyebrow" d="M24.32347,34.18073a.7343.7343,0,0,0-.46288-.81934c-3.8558-1.45312-6.13506-2.128-9.76121-1.68555-3.43421.419-.87207,1.20567-.34373,1.35407a.81621.81621,0,0,0,.18414.02863,42.90716,42.90716,0,0,1,9.47542,1.70069A.73641.73641,0,0,0,24.32347,34.18073Z" style="fill:#cbb676"/></g><g id="Hair"><path id="Short" d="M48.71762,38.07788a20.79413,20.79413,0,1,0-41.418-2.6547,20.9986,20.9986,0,0,0,.16782,2.65453,20.79526,20.79526,0,0,1,41.25017.00017Z" style="fill:#cbb676"/><path id="Bangs" d="M6.66532,0C-3.08619,30.55375,25.60857,29.67786,41.17483,25.42081,49.76555,23.71,41.08729,2.17273,26.267,6.43214,14.41067,9.83965,8.25909,3.56385,6.66532,0Z" style="fill:#ffe794"/></g></g><path id="Body" d="M0,75.68507A17.2546,17.2546,0,0,1,17.25459,58.43048H38.70941A17.25459,17.25459,0,0,1,55.96389,75.68507v14.602a4.42419,4.42419,0,0,1-4.4242,4.42421H4.42426A4.42422,4.42422,0,0,1,0,90.28706Z" style="fill:#98c7eb"/><path id="Neck" d="M19.02255,51.79281a9.06922,9.06922,0,1,1,18.13843,0v5.31126a9.06922,9.06922,0,1,1-18.13843,0Z" style="fill:#fff8c9"/><g id="Shirt_Collar" data-name="Shirt Collar"><path id="Left" d="M18.77387,57.94422a.88485.88485,0,0,0-1.46193.47625L14.92749,69.998a.8848.8848,0,0,0,1.14067,1.01982l11.12959-3.62563A.8849.8849,0,0,0,27.519,65.8961Z" style="fill:#d4ecff"/><path id="Right" d="M37.28745,57.90961a.88485.88485,0,0,1,1.46192.47625l2.38447,11.57751a.88481.88481,0,0,1-1.14067,1.01982L28.86358,67.35756a.8849.8849,0,0,1-.32125-1.49606Z" style="fill:#d4ecff"/></g><g id="Logo"><path id="Red_base" data-name="Red base" d="M45.971,78.20636a5.08529,5.08529,0,1,1-5.08529-5.08529A5.0853,5.0853,0,0,1,45.971,78.20636Z" style="fill:#ff7878"/><path id="White_logo" data-name="White logo" d="M38.6482,76.63419v3.87043a.40684.40684,0,0,0,.62978.34031l.60484-.39628a.40682.40682,0,0,1,.46882.01618l1.00428.76185a.40681.40681,0,0,0,.48645.004l1.11464-.81741a.40681.40681,0,0,0,.16625-.32806V76.07712a.40683.40683,0,0,0-.61614-.34885l-.69654.41793a.40685.40685,0,0,1-.42387-.00319l-1.03178-.64042a.40682.40682,0,0,0-.45315.01615l-1.08536.78595A.40682.40682,0,0,0,38.6482,76.63419Z" style="fill:#fff"/><path id="Red_rectangle" data-name="Red rectangle" d="M40.2755,79.56864v-2.9103a.30512.30512,0,0,1,.48071-.24953l.76279.53678a.30514.30514,0,0,1,.12952.24953v2.882a.30511.30511,0,0,1-.47436.25387l-.7628-.50852A.3051.3051,0,0,1,40.2755,79.56864Z" style="fill:#ff7878"/></g></g></g></g></svg>